<svg xmlns="http://www.w3.org/2000/svg" version="1.1" xmlns:xlink="http://www.w3.org/1999/xlink" xmlns:svgjs="http://svgjs.dev/svgjs" viewBox="0 0 7.059173017330141 2.0780898454282997"><g transform="matrix(1,0,0,1,1.5965186595605907,0.33094207945562426)"><g><path d=" M 0.6015 0.4229999999999998 C 0.6015 0.38549999999999984 0.5115000000000001 0.3749999999999999 0.47250000000000003 0.3749999999999999 C 0.47250000000000003 0.3749999999999999 0.396 0.2849999999999998 0.276 0.2849999999999998 C 0.1395 0.2849999999999998 -0.039 0.6164999999999998 -0.039 0.8144999999999999 C -0.039 0.8954999999999999 0.0855 0.9899999999999999 0.1545 0.9899999999999999 C 0.231 0.9899999999999999 0.315 0.8909999999999999 0.315 0.8909999999999999 C 0.315 0.8909999999999999 0.2985 0.9449999999999998 0.2775 1.011 C 0.18 1.0724999999999998 0.0885 1.1309999999999998 0.0285 1.1774999999999998 C -0.018000000000000002 1.212 -0.027 1.254 -0.027 1.293 C -0.027 1.3439999999999999 0.084 1.44 0.1635 1.44 C 0.222 1.44 0.297 1.4175 0.324 1.3695 C 0.3525 1.3184999999999998 0.4035 1.1624999999999999 0.453 0.9914999999999998 C 0.5730000000000001 0.9209999999999998 0.7005 0.8459999999999999 0.7785 0.7034999999999998 C 0.7785 0.7034999999999998 0.798 0.6689999999999998 0.798 0.6509999999999998 C 0.798 0.6329999999999998 0.7665000000000001 0.6089999999999999 0.747 0.6089999999999999 C 0.729 0.6089999999999999 0.714 0.6359999999999999 0.714 0.6359999999999999 C 0.6585 0.7409999999999999 0.5760000000000001 0.8204999999999999 0.4845 0.8834999999999998 C 0.5475 0.6644999999999999 0.6015 0.4514999999999999 0.6015 0.4229999999999998 M 0.3315 0.4049999999999998 C 0.3555 0.4049999999999998 0.41250000000000003 0.4244999999999999 0.41250000000000003 0.4484999999999999 C 0.41250000000000003 0.4904999999999999 0.366 0.6719999999999999 0.336 0.7349999999999999 C 0.294 0.8219999999999998 0.219 0.8744999999999998 0.189 0.8744999999999998 C 0.1635 0.8744999999999998 0.1365 0.8489999999999999 0.1365 0.8144999999999999 C 0.1365 0.6824999999999999 0.2565 0.4049999999999998 0.3315 0.4049999999999998 M 0.189 1.2719999999999998 C 0.17400000000000002 1.3034999999999999 0.1275 1.323 0.105 1.323 C 0.0855 1.323 0.066 1.3005 0.066 1.2824999999999998 C 0.066 1.2405 0.1395 1.1849999999999998 0.243 1.1189999999999998 C 0.222 1.1849999999999998 0.201 1.2449999999999999 0.189 1.2719999999999998 M 0.8684904785156251 0.6509999999999998 C 0.8819904785156252 0.5804999999999998 0.9704904785156252 0.4019999999999998 1.0289904785156252 0.4019999999999998 C 1.049990478515625 0.4019999999999998 1.0739904785156251 0.41849999999999987 1.0739904785156251 0.4394999999999999 C 1.0739904785156251 0.47999999999999987 1.012490478515625 0.6509999999999998 0.8684904785156251 0.6509999999999998 M 0.6689904785156251 0.7754999999999999 C 0.6689904785156251 0.8924999999999998 0.8504904785156251 0.9899999999999999 0.9824904785156252 0.9899999999999999 C 1.1039904785156252 0.9899999999999999 1.234490478515625 0.8969999999999999 1.3364904785156253 0.7034999999999998 C 1.3364904785156253 0.7034999999999998 1.354490478515625 0.6689999999999998 1.354490478515625 0.6509999999999998 C 1.354490478515625 0.6329999999999998 1.3229904785156252 0.6089999999999999 1.3034904785156252 0.6089999999999999 C 1.283990478515625 0.6089999999999999 1.271990478515625 0.6359999999999999 1.271990478515625 0.6359999999999999 C 1.1744904785156252 0.8279999999999998 1.055990478515625 0.8834999999999998 0.9749904785156251 0.8834999999999998 C 0.9104904785156251 0.8834999999999998 0.8459904785156251 0.8279999999999998 0.8459904785156251 0.7919999999999998 C 0.8459904785156251 0.7439999999999999 0.8579904785156252 0.7184999999999999 0.8579904785156252 0.7184999999999999 C 0.8579904785156252 0.7184999999999999 0.9314904785156252 0.7394999999999998 0.9989904785156252 0.7394999999999998 C 1.096490478515625 0.7394999999999998 1.1924904785156252 0.49949999999999983 1.1924904785156252 0.4244999999999999 C 1.1924904785156252 0.3599999999999999 1.054490478515625 0.2849999999999998 0.9779904785156252 0.2849999999999998 C 0.8384904785156251 0.2849999999999998 0.6689904785156251 0.6059999999999999 0.6689904785156251 0.7754999999999999 M 1.7700190429687503 0.8444999999999998 C 1.7700190429687503 0.7649999999999999 1.8630190429687503 0.4724999999999998 1.8630190429687503 0.4019999999999998 C 1.8630190429687503 0.3464999999999998 1.7820190429687504 0.2849999999999998 1.7370190429687502 0.2849999999999998 C 1.6590190429687501 0.2849999999999998 1.5120190429687503 0.37349999999999983 1.5120190429687503 0.37349999999999983 C 1.5120190429687503 0.37349999999999983 1.4415190429687503 0.2849999999999998 1.4160190429687503 0.2849999999999998 C 1.3935190429687503 0.2849999999999998 1.3740190429687502 0.2954999999999999 1.3650190429687503 0.3164999999999999 C 1.3335190429687502 0.41849999999999987 1.2195190429687504 0.8729999999999999 1.2195190429687504 0.9119999999999999 C 1.2195190429687504 0.9524999999999999 1.3080190429687502 0.9899999999999999 1.3425190429687504 0.9899999999999999 C 1.3650190429687503 0.9899999999999999 1.3695190429687503 0.9749999999999999 1.3755190429687503 0.9554999999999999 C 1.3845190429687502 0.9119999999999999 1.4535190429687503 0.6089999999999999 1.4925190429687503 0.5099999999999998 C 1.5150190429687502 0.45299999999999985 1.5990190429687503 0.41549999999999987 1.6305190429687504 0.41549999999999987 C 1.6500190429687502 0.41549999999999987 1.6755190429687503 0.44099999999999984 1.6755190429687503 0.4664999999999998 C 1.6755190429687503 0.5234999999999999 1.5915190429687502 0.7634999999999998 1.5915190429687502 0.8594999999999998 C 1.5915190429687502 0.9269999999999998 1.7265190429687503 0.9899999999999999 1.7940190429687504 0.9899999999999999 C 1.9020190429687502 0.9899999999999999 1.9905190429687503 0.8534999999999999 2.0730190429687503 0.7034999999999998 C 2.0730190429687503 0.7034999999999998 2.09251904296875 0.6689999999999998 2.09251904296875 0.6509999999999998 C 2.09251904296875 0.6329999999999998 2.0610190429687503 0.6089999999999999 2.0415190429687504 0.6089999999999999 C 2.02201904296875 0.6089999999999999 2.00851904296875 0.6359999999999999 2.00851904296875 0.6359999999999999 C 1.9350190429687504 0.7709999999999999 1.8540190429687504 0.8864999999999998 1.8090190429687503 0.8864999999999998 C 1.7955190429687504 0.8864999999999998 1.7700190429687503 0.8639999999999999 1.7700190429687503 0.8444999999999998 M 2.6010021972656254 0.47549999999999987 C 2.6010021972656254 0.5564999999999999 2.6355021972656254 0.6689999999999998 2.6355021972656254 0.7769999999999999 C 2.6355021972656254 0.8309999999999998 2.5965021972656257 0.8834999999999998 2.5455021972656255 0.8834999999999998 C 2.5050021972656253 0.8834999999999998 2.4570021972656253 0.8054999999999999 2.4570021972656253 0.7304999999999999 C 2.4570021972656253 0.6809999999999998 2.6010021972656254 0.47549999999999987 2.6010021972656254 0.47549999999999987 M 2.7645021972656254 0.8609999999999999 C 2.7645021972656254 0.8609999999999999 2.8110021972656254 0.7964999999999999 2.8110021972656254 0.7394999999999998 C 2.8110021972656254 0.6269999999999998 2.7540021972656255 0.49649999999999983 2.7540021972656255 0.35099999999999987 C 2.7540021972656255 0.32399999999999984 2.6640021972656256 0.26549999999999985 2.6445021972656253 0.26549999999999985 C 2.6235021972656254 0.26549999999999985 2.6055021972656256 0.28349999999999986 2.5965021972656257 0.2999999999999998 C 2.5455021972656255 0.3839999999999999 2.4015021972656254 0.6044999999999998 2.4015021972656254 0.6044999999999998 C 2.4015021972656254 0.6044999999999998 2.2770021972656256 0.6629999999999998 2.2770021972656256 0.7364999999999998 C 2.2770021972656256 0.8294999999999999 2.4345021972656253 0.9899999999999999 2.5845021972656257 0.9899999999999999 C 2.8095021972656253 0.9899999999999999 2.9550021972656255 0.8534999999999999 3.0375021972656255 0.7034999999999998 C 3.0375021972656255 0.7034999999999998 3.0570021972656254 0.6689999999999998 3.0570021972656254 0.6509999999999998 C 3.0570021972656254 0.6329999999999998 3.0255021972656255 0.6089999999999999 3.0060021972656257 0.6089999999999999 C 2.9865021972656254 0.6089999999999999 2.9730021972656253 0.6359999999999999 2.9730021972656253 0.6359999999999999 C 2.8995021972656256 0.7709999999999999 2.8290021972656256 0.8309999999999998 2.7645021972656254 0.8609999999999999 M 3.3000249023437505 0.8594999999999998 C 3.3000249023437505 0.9269999999999998 3.426024902343751 0.9899999999999999 3.4935249023437507 0.9899999999999999 C 3.6030249023437504 0.9899999999999999 3.6900249023437506 0.8534999999999999 3.7725249023437506 0.7034999999999998 C 3.7725249023437506 0.7034999999999998 3.7920249023437504 0.6689999999999998 3.7920249023437504 0.6509999999999998 C 3.7920249023437504 0.6329999999999998 3.7605249023437506 0.6089999999999999 3.7410249023437507 0.6089999999999999 C 3.7215249023437504 0.6089999999999999 3.708024902343751 0.6359999999999999 3.708024902343751 0.6359999999999999 C 3.6345249023437507 0.7709999999999999 3.5520249023437507 0.8864999999999998 3.5085249023437504 0.8864999999999998 C 3.4950249023437507 0.8864999999999998 3.4695249023437507 0.8639999999999999 3.4695249023437507 0.8444999999999998 C 3.4695249023437507 0.7649999999999999 3.5625249023437506 0.4724999999999998 3.5625249023437506 0.4019999999999998 C 3.5625249023437506 0.3464999999999998 3.4800249023437506 0.2849999999999998 3.4365249023437507 0.2849999999999998 C 3.3465249023437504 0.2849999999999998 3.2220249023437506 0.38549999999999984 3.2220249023437506 0.38549999999999984 C 3.2220249023437506 0.38549999999999984 3.264024902343751 0.24299999999999988 3.3000249023437505 0.11699999999999988 C 3.3030249023437506 0.10499999999999987 3.3075249023437507 0.08999999999999986 3.3075249023437507 0.07949999999999979 C 3.3075249023437507 0.053999999999999826 3.2070249023437505 -1.1102230246251565e-16 3.1785249023437507 -1.1102230246251565e-16 C 3.1665249023437507 -1.1102230246251565e-16 3.1530249023437507 0.008999999999999897 3.1470249023437504 0.03149999999999986 C 3.1035249023437506 0.1649999999999998 2.922024902343751 0.8564999999999998 2.922024902343751 0.9104999999999999 C 2.922024902343751 0.9509999999999998 3.0105249023437506 0.9899999999999999 3.0465249023437506 0.9899999999999999 C 3.0675249023437505 0.9899999999999999 3.0720249023437507 0.9749999999999999 3.0780249023437505 0.9554999999999999 C 3.087024902343751 0.9089999999999998 3.1470249023437504 0.6629999999999998 3.1875249023437506 0.5354999999999999 C 3.2070249023437505 0.47099999999999986 3.2940249023437507 0.41549999999999987 3.3300249023437507 0.41549999999999987 C 3.3495249023437506 0.41549999999999987 3.3750249023437506 0.44099999999999984 3.3750249023437506 0.4664999999999998 C 3.3750249023437506 0.5234999999999999 3.3000249023437505 0.7634999999999998 3.3000249023437505 0.8594999999999998 M 4.48799560546875 0.7034999999999998 C 4.48799560546875 0.7034999999999998 4.508995605468751 0.6689999999999998 4.508995605468751 0.6509999999999998 C 4.508995605468751 0.6329999999999998 4.475995605468751 0.6089999999999999 4.454995605468751 0.6089999999999999 C 4.43699560546875 0.6089999999999999 4.423495605468751 0.6359999999999999 4.423495605468751 0.6359999999999999 C 4.423495605468751 0.6359999999999999 4.352995605468751 0.7829999999999999 4.246495605468751 0.7829999999999999 C 4.2314956054687505 0.7829999999999999 4.219495605468751 0.7814999999999999 4.2074956054687505 0.7769999999999999 C 4.2554956054687505 0.6779999999999999 4.285495605468751 0.5669999999999998 4.285495605468751 0.4874999999999999 C 4.285495605468751 0.39449999999999985 4.121995605468751 0.2849999999999998 4.006495605468751 0.2849999999999998 C 3.845995605468751 0.2849999999999998 3.6974956054687507 0.5744999999999998 3.6974956054687507 0.7829999999999999 C 3.6974956054687507 0.8909999999999999 3.8699956054687505 0.9899999999999999 3.9749956054687505 0.9899999999999999 C 4.037995605468751 0.9899999999999999 4.096495605468751 0.9449999999999998 4.145995605468751 0.8789999999999999 C 4.166995605468751 0.8804999999999998 4.187995605468751 0.8804999999999998 4.20599560546875 0.8804999999999998 C 4.3964956054687505 0.8804999999999998 4.48799560546875 0.7034999999999998 4.48799560546875 0.7034999999999998 M 3.877495605468751 0.8189999999999998 C 3.877495605468751 0.6509999999999998 4.000495605468751 0.3959999999999999 4.076995605468751 0.3959999999999999 C 4.106995605468751 0.3959999999999999 4.147495605468751 0.4229999999999998 4.147495605468751 0.45599999999999985 C 4.147495605468751 0.5279999999999998 4.117495605468751 0.6299999999999999 4.079995605468751 0.7154999999999998 C 4.0454956054687505 0.7214999999999998 3.983995605468751 0.7829999999999999 3.983995605468751 0.8129999999999998 C 3.983995605468751 0.8264999999999999 3.9914956054687507 0.8369999999999999 4.003495605468751 0.8459999999999999 C 3.982495605468751 0.8714999999999998 3.961495605468751 0.8864999999999998 3.9449956054687507 0.8864999999999998 C 3.914995605468751 0.8864999999999998 3.877495605468751 0.8564999999999998 3.877495605468751 0.8189999999999998 M 4.568965576171875 0.7979999999999998 C 4.568965576171875 0.7484999999999998 4.606465576171876 0.6239999999999999 4.636465576171876 0.5399999999999998 C 4.658965576171876 0.47399999999999987 4.751965576171876 0.40349999999999986 4.789465576171875 0.40349999999999986 C 4.813465576171875 0.40349999999999986 4.846465576171876 0.4334999999999999 4.846465576171876 0.4634999999999998 C 4.846465576171876 0.5204999999999999 4.822465576171876 0.6254999999999998 4.789465576171875 0.7169999999999999 C 4.783465576171875 0.7169999999999999 4.777465576171876 0.7154999999999998 4.771465576171876 0.7154999999999998 C 4.738465576171875 0.7154999999999998 4.6754655761718755 0.7769999999999999 4.6754655761718755 0.8084999999999999 C 4.6754655761718755 0.8249999999999998 4.693465576171875 0.8384999999999998 4.7204655761718755 0.8504999999999998 C 4.706965576171876 0.8669999999999999 4.687465576171875 0.8804999999999998 4.672465576171875 0.8804999999999998 C 4.622965576171875 0.8804999999999998 4.568965576171875 0.8384999999999998 4.568965576171875 0.7979999999999998 M 4.882465576171875 0.8789999999999999 C 4.882465576171875 0.8789999999999999 4.919965576171875 0.8804999999999998 4.937965576171876 0.8804999999999998 C 5.128465576171876 0.8804999999999998 5.219965576171876 0.7034999999999998 5.219965576171876 0.7034999999999998 C 5.219965576171876 0.7034999999999998 5.240965576171876 0.6689999999999998 5.240965576171876 0.6509999999999998 C 5.240965576171876 0.6329999999999998 5.207965576171875 0.6089999999999999 5.186965576171875 0.6089999999999999 C 5.168965576171876 0.6089999999999999 5.155465576171875 0.6359999999999999 5.155465576171875 0.6359999999999999 C 5.155465576171875 0.6359999999999999 5.084965576171875 0.7829999999999999 4.9784655761718755 0.7829999999999999 C 4.963465576171876 0.7829999999999999 4.939465576171876 0.7769999999999999 4.939465576171876 0.7769999999999999 C 4.996465576171875 0.6599999999999999 5.023465576171875 0.5324999999999999 5.023465576171875 0.4454999999999999 C 5.023465576171875 0.3689999999999999 4.912465576171876 0.2849999999999998 4.846465576171876 0.2849999999999998 C 4.759465576171875 0.2849999999999998 4.670965576171875 0.37349999999999983 4.670965576171875 0.37349999999999983 C 4.670965576171875 0.37349999999999983 4.591465576171875 0.2849999999999998 4.565965576171876 0.2849999999999998 C 4.544965576171875 0.2849999999999998 4.522465576171875 0.2954999999999999 4.517965576171876 0.3164999999999999 C 4.4624655761718754 0.5099999999999998 4.282465576171876 1.212 4.282465576171876 1.2645 C 4.282465576171876 1.3034999999999999 4.363465576171875 1.3409999999999997 4.400965576171876 1.3409999999999997 C 4.424965576171876 1.3409999999999997 4.433965576171875 1.3275 4.438465576171875 1.3079999999999998 C 4.448965576171876 1.2359999999999998 4.522465576171875 0.9209999999999998 4.522465576171875 0.9209999999999998 C 4.522465576171875 0.9209999999999998 4.600465576171875 0.9899999999999999 4.715965576171875 0.9899999999999999 C 4.777465576171876 0.9899999999999999 4.8374655761718754 0.9374999999999999 4.882465576171875 0.8789999999999999" fill="#404040" fill-rule="nonzero"></path></g><g></g><g clip-path="url(#SvgjsClipPath1001)"><g clip-path="url(#SvgjsClipPath1000651ff992-a149-4ff9-906e-1aeda7731a0e)"><path d=" M -0.6294461636994371 0.37742969640297624 C -0.6319392769791399 0.3774295867066385 -0.6343884375090233 0.37677321168462985 -0.6365474736089226 0.3755265453472339 L -0.851788176965425 0.2512536219312397 C -0.856182371200161 0.2487166327091263 -0.8588893579757103 0.24402813161387504 -0.8588894868749103 0.238954153168011 L -0.8588894868749103 -0.009591693663978117 C -0.8588893579757069 -0.014665672109851837 -0.8561823712001544 -0.019354173205101244 -0.8517881769654165 -0.02189116242721163 C -0.8473938711006437 -0.0244282161011398 -0.8419798630112354 -0.0244282161011398 -0.8375855571464542 -0.02189116242720681 L -0.6223448537899517 0.1023817609887877 C -0.6179506595552156 0.10491875021090119 -0.6152436727796664 0.10960725130615237 -0.6152435438804663 0.1146812297520165 L -0.6152435438804663 0.3632270765840055 C -0.6152436727796697 0.36830105502987925 -0.6179506595552222 0.3729895561251287 -0.6223448537899601 0.3755265453472391 C -0.6245033210148965 0.3767745843060758 -0.6269528566295082 0.37743105985079173 -0.6294461636994371 0.37742969640297624 Z M -0.8304842472369687 0.23075356048453716 L -0.6436487835184079 0.33862813905754796 L -0.6436487835184079 0.12288182243549012 L -0.8304842472369687 0.015007243862479307 Z" fill="#4e888f" transform="matrix(1,0,0,1,0,0)" fill-rule="nonzero"></path></g><g clip-path="url(#SvgjsClipPath1000651ff992-a149-4ff9-906e-1aeda7731a0e)"><path d=" M -0.8446868670559395 0.7502484666509598 C -0.8471801212271981 0.7502494276423766 -0.8496295542883225 0.7495929795819952 -0.851788176965425 0.7483453155952174 L -1.0670288803219272 0.6240723921792232 C -1.0714230745566635 0.6215354029571096 -1.0741300613322127 0.6168469018618584 -1.0741301902314127 0.6117729234159945 C -1.0741300613322313 0.606698944970183 -1.0714230745566995 0.6020104438749216 -1.0670288803219727 0.5994734546527922 L -0.6436487835184078 0.35502648390053165 L -0.6436487835184078 0.11468122975201642 C -0.6436486546192044 0.10960725130614257 -0.6409416678436519 0.10491875021089314 -0.6365474736089138 0.10238176098878274 C -0.6321531677441411 0.0998447073148546 -0.6267391596547327 0.0998447073148546 -0.6223448537899515 0.10238176098878765 L -0.40710415043344905 0.22665468440478215 C -0.40270995619871275 0.22919167362689552 -0.4000029694231636 0.23388017472214678 -0.4000028405239635 0.23895415316801083 L -0.4000028405239635 0.48749999999999993 C -0.40000296942314484 0.4925739784458114 -0.4027099561986768 0.4972624795410727 -0.40710415043340353 0.49979946876320225 L -0.8375855571464541 0.7483453155952176 C -0.8397441798235565 0.7495929795819952 -0.8421936128846808 0.7502494276423766 -0.8446868670559395 0.7502484666509596 Z M -1.0315223307745005 0.6117729234159945 L -0.8446868670559395 0.7196475019890052 L -0.42840808016190524 0.4792994073165261 L -0.42840808016190524 0.24715474585148461 L -0.6152435438804663 0.13928016727847378 L -0.6152435438804663 0.3632270765840055 C -0.6152436727796476 0.368301055029817 -0.6179506595551796 0.37298955612507834 -0.6223448537899063 0.3755265453472078 Z M -0.6294461636994368 0.3632270765840055 L -0.6294461636994368 0.3632270765840055 Z" fill="#4e888f" transform="matrix(1,0,0,1,0,0)" fill-rule="nonzero"></path></g><g clip-path="url(#SvgjsClipPath1000651ff992-a149-4ff9-906e-1aeda7731a0e)"><path d=" M -1.2751682737689445 0.5017026198189708 C -1.2776615808388734 0.5017039832667861 -1.280111116453485 0.5010475077220702 -1.2822695836784297 0.49979946876322856 C -1.286663777913166 0.49726247954111524 -1.2893707646887151 0.4925739784458639 -1.2893708935879151 0.48749999999999993 L -1.2893708935879151 0.23895415316801089 C -1.289370764688712 0.23388017472213707 -1.2866637779131593 0.22919167362688764 -1.2822695836784213 0.2266546844047772 L -0.8517881769654247 -0.02189116242720685 C -0.8473938711006436 -0.024428216101139842 -0.8419798630112352 -0.024428216101139842 -0.8375855571464541 -0.02189116242720685 C -0.8331913629117178 -0.019354173205093424 -0.8304843761361688 -0.01466567210984216 -0.8304842472369687 -0.009591693663978117 L -0.8304842472369687 0.23895415316801089 C -0.8304843761361721 0.24402813161388476 -0.8331913629117246 0.2487166327091342 -0.8375855571464625 0.25125362193124456 L -1.268066963859459 0.4997994687632288 C -1.2702259999593581 0.5010461351006245 -1.2726751604892417 0.501702510122633 -1.2751682737689445 0.5017026198189708 Z M -1.2609656539499736 0.24715474585148461 L -1.2609656539499736 0.4629010624735424 L -0.8588894868749103 0.23075356048453716 L -0.8588894868749103 0.015007243862479307 Z M -0.8446868670559395 0.23895415316801089 L -0.8446868670559395 0.23895415316801089 Z" fill="#4e888f" transform="matrix(1,0,0,1,0,0)" fill-rule="nonzero"></path></g><g clip-path="url(#SvgjsClipPath1000651ff992-a149-4ff9-906e-1aeda7731a0e)"><path d=" M -0.8446868670559395 0.9987943134829488 C -0.8471799803356423 0.9987942037866112 -0.8496291408655257 0.9981378287646024 -0.851788176965425 0.9968911624272067 C -0.856182371200161 0.9943541732050932 -0.8588893579757103 0.9896656721098419 -0.8588894868749103 0.9845916936639781 L -0.8588894868749103 0.7360458468319889 C -0.858889357975729 0.7309718683861773 -0.856182371200197 0.7262833672909162 -0.8517881769654703 0.7237463780687866 L -0.4213067702524199 0.47520053123677125 C -0.41691246438763874 0.47266347756283833 -0.41149845629823034 0.47266347756283833 -0.40710415043344916 0.47520053123677125 C -0.40270995619871297 0.47773752045888473 -0.4000029694231638 0.48242602155413594 -0.4000028405239636 0.48749999999999993 L -0.4000028405239636 0.7360458468319889 C -0.40000296942314495 0.7411198252778004 -0.4027099561986769 0.7458083263730617 -0.40710415043340364 0.7483453155951914 L -0.8375855571464542 0.9968911624272067 C -0.8397445932463534 0.9981378287646024 -0.8421937537762367 0.9987942037866112 -0.8446868670559395 0.9987943134829488 Z M -0.8304842472369687 0.7442464395154628 L -0.8304842472369687 0.9599927561375204 L -0.42840808016190524 0.727845254148515 L -0.42840808016190524 0.5120989375264574 Z" fill="#4e888f" transform="matrix(1,0,0,1,0,0)" fill-rule="nonzero"></path></g><g clip-path="url(#SvgjsClipPath1000651ff992-a149-4ff9-906e-1aeda7731a0e)"><path d=" M -1.0599275704124418 0.8745213900669543 C -1.0624206836921446 0.8745212803706166 -1.0648698442220281 0.8738649053486078 -1.0670288803219272 0.8726182390112122 L -1.2822695836784297 0.7483453155952176 C -1.286663777913166 0.7458083263731042 -1.2893707646887151 0.741119825277853 -1.2893708935879151 0.7360458468319889 L -1.2893708935879151 0.48749999999999993 C -1.2893707646887338 0.48242602155418846 -1.286663777913202 0.47773752045892726 -1.2822695836784752 0.4752005312367976 L -0.8517881769654247 0.2266546844047822 C -0.8473938711006436 0.22411763073084917 -0.8419798630112352 0.22411763073084917 -0.8375855571464541 0.2266546844047822 L -0.6223448537899514 0.3509276078207768 C -0.6179506595552152 0.3534645970428902 -0.615243672779666 0.3581530981381414 -0.615243543880466 0.3632270765840055 C -0.6152436727796694 0.36830105502987925 -0.6179506595552219 0.3729895561251287 -0.6223448537899597 0.3755265453472391 L -1.045724950593471 0.6199735160994684 L -1.045724950593471 0.8603187702479834 C -1.0457250794926523 0.865392748693795 -1.0484320662681839 0.8700812497890563 -1.0528262605029108 0.8726182390111857 C -1.0549852966028554 0.8738649053486078 -1.0574344571327388 0.8745212803706166 -1.0599275704124416 0.8745213900669543 Z M -1.2609656539499736 0.7278452541485152 L -1.0741301902314127 0.835719832721526 L -1.0741301902314127 0.6117729234159945 C -1.0741300613322313 0.606698944970183 -1.0714230745566995 0.6020104438749216 -1.0670288803219727 0.5994734546527922 L -0.6578514033373785 0.3632270765840055 L -0.8446868670559395 0.2553524980109946 L -1.2609656539499736 0.49570059268347366 Z" fill="#4e888f" transform="matrix(1,0,0,1,0,0)" fill-rule="nonzero"></path></g><g clip-path="url(#SvgjsClipPath1000651ff992-a149-4ff9-906e-1aeda7731a0e)"><path d=" M -0.8446868670559395 0.9987943134829488 C -0.8471799803356423 0.9987942037866112 -0.8496291408655257 0.9981378287646024 -0.851788176965425 0.9968911624272067 L -1.0670288803219272 0.8726182390112122 C -1.0714230745566635 0.8700812497890987 -1.0741300613322127 0.8653927486938474 -1.0741301902314127 0.8603187702479834 L -1.0741301902314127 0.6117729234159945 C -1.0741300613322313 0.606698944970183 -1.0714230745566995 0.6020104438749216 -1.0670288803219727 0.5994734546527922 C -1.0626345744571462 0.5969364009788327 -1.057220566367738 0.5969364009788327 -1.0528262605029566 0.5994734546527658 L -0.8375855571464542 0.7237463780687604 C -0.8331913629117179 0.7262833672908737 -0.8304843761361688 0.7309718683861249 -0.8304842472369687 0.7360458468319889 L -0.8304842472369687 0.9845916936639781 C -0.83048437613615 0.9896656721097895 -0.8331913629116818 0.9943541732050506 -0.8375855571464087 0.9968911624271802 C -0.8397445932463534 0.9981378287646024 -0.8421937537762367 0.9987942037866112 -0.8446868670559395 0.9987943134829488 Z M -1.0457249505934711 0.8521181775645097 L -0.8588894868749103 0.9599927561375204 L -0.8588894868749103 0.7442464395154628 L -1.0457249505934711 0.636371860942452 Z" fill="#4e888f" transform="matrix(1,0,0,1,0,0)" fill-rule="nonzero"></path></g></g></g><defs><clipPath id="SvgjsClipPath1001"><path d=" M -1.2893708935879151 -0.023794313482948914 h 0.8893708935879152 v 1.0225886269658977 h -0.8893708935879152 Z"></path></clipPath><clipPath id="SvgjsClipPath1000651ff992-a149-4ff9-906e-1aeda7731a0e"><path d=" M -1.2893708935879151 -0.023794313482948914 L -0.3999999999999999 -0.023794313482948914 L -0.3999999999999999 0.9987943134829488 L -1.2893708935879153 0.9987943134829488 Z"></path></clipPath></defs></svg>